<svg id="visual" viewBox="0 0 1366 320" width="1366" height="720" xmlns="http://www.w3.org/2000/svg" xmlns:xlink="http://www.w3.org/1999/xlink" version="1.1"><path d="M0 427L57 402.7C114 378.3 228 329.7 341.8 335.8C455.7 342 569.3 403 683.2 385.5C797 368 911 272 1024.8 232.3C1138.7 192.7 1252.3 209.3 1309.2 217.7L1366 226L1366 721L1309.2 721C1252.3 721 1138.7 721 1024.8 721C911 721 797 721 683.2 721C569.3 721 455.7 721 341.8 721C228 721 114 721 57 721L0 721Z" fill="#088178" stroke-linecap="round" stroke-linejoin="miter"></path></svg>